<svg width="48" height="49" viewBox="0 0 48 49" fill="none" xmlns="http://www.w3.org/2000/svg">
<rect x="0.923096" y="0.476562" width="47" height="48" rx="13" fill="#2C5DA5"/>
<path d="M19.2577 35.501H16.057C15.491 35.501 14.9483 35.2687 14.5481 34.8552C14.1479 34.4417 13.9231 33.8809 13.9231 33.2961V25.5786C13.9231 24.9938 14.1479 24.433 14.5481 24.0194C14.9483 23.6059 15.491 23.3736 16.057 23.3736H19.2577M26.7263 21.1686V16.7587C26.7263 15.8815 26.389 15.0402 25.7888 14.4199C25.1885 13.7996 24.3744 13.4512 23.5255 13.4512L19.2577 23.3736V35.501H31.2927C31.8073 35.5071 32.3067 35.3207 32.6988 34.9763C33.0909 34.6319 33.3494 34.1526 33.4266 33.6268L34.8989 23.7044C34.9454 23.3883 34.9247 23.0657 34.8385 22.7587C34.7522 22.4517 34.6024 22.1678 34.3995 21.9266C34.1965 21.6854 33.9452 21.4927 33.663 21.3618C33.3808 21.2309 33.0744 21.165 32.7651 21.1686H26.7263Z" stroke="white" stroke-width="2" stroke-linecap="round" stroke-linejoin="round"/>
</svg>
