<svg width="48" height="49" viewBox="0 0 48 49" fill="none" xmlns="http://www.w3.org/2000/svg">
<rect x="0.423096" y="0.279297" width="47" height="48" rx="13" fill="#22B193"/>
<path d="M18.7577 35.3038H15.557C14.991 35.3038 14.4483 35.0715 14.0481 34.658C13.6479 34.2444 13.4231 33.6836 13.4231 33.0988V25.3813C13.4231 24.7965 13.6479 24.2357 14.0481 23.8222C14.4483 23.4087 14.991 23.1764 15.557 23.1764H18.7577M26.2263 20.9714V16.5614C26.2263 15.6842 25.889 14.8429 25.2888 14.2226C24.6885 13.6024 23.8744 13.2539 23.0255 13.2539L18.7577 23.1764V35.3038H30.7927C31.3073 35.3098 31.8067 35.1234 32.1988 34.779C32.5909 34.4346 32.8494 33.9553 32.9266 33.4295L34.3989 23.5071C34.4454 23.1911 34.4247 22.8684 34.3385 22.5614C34.2522 22.2545 34.1024 21.9705 33.8995 21.7293C33.6965 21.4881 33.4452 21.2954 33.163 21.1645C32.8808 21.0337 32.5744 20.9677 32.2651 20.9714H26.2263Z" stroke="white" stroke-width="2" stroke-linecap="round" stroke-linejoin="round"/>
</svg>
