<svg width="41" height="40" viewBox="0 0 41 40" fill="none" xmlns="http://www.w3.org/2000/svg">
<path d="M34.9438 7.68345C34.0925 6.83179 33.0818 6.15619 31.9694 5.69525C30.8569 5.23432 29.6646 4.99707 28.4604 4.99707C27.2563 4.99707 26.064 5.23432 24.9515 5.69525C23.8391 6.15619 22.8284 6.83179 21.9771 7.68345L20.2104 9.45011L18.4438 7.68345C16.7243 5.96396 14.3922 4.99796 11.9604 4.99796C9.52872 4.99796 7.1966 5.96396 5.47711 7.68345C3.75762 9.40293 2.79163 11.7351 2.79163 14.1668C2.79163 16.5985 3.75762 18.9306 5.47711 20.6501L7.24378 22.4168L20.2104 35.3834L33.1771 22.4168L34.9438 20.6501C35.7954 19.7989 36.471 18.7881 36.932 17.6757C37.3929 16.5633 37.6302 15.3709 37.6302 14.1668C37.6302 12.9626 37.3929 11.7703 36.932 10.6579C36.471 9.54542 35.7954 8.53471 34.9438 7.68345Z" fill="#E6EFF9" stroke="#2C5DA5" stroke-width="2" stroke-linecap="round" stroke-linejoin="round"/>
<path d="M34.4961 20.6126L26.3771 20.6126L23.3771 25.6651L20.0437 14.5176L16.2104 20.6126H5.49609" stroke="#2C5DA5" stroke-width="2" stroke-linecap="round" stroke-linejoin="round"/>
</svg>
