<svg width="48" height="49" viewBox="0 0 48 49" fill="none" xmlns="http://www.w3.org/2000/svg">
<rect x="0.990234" y="0.351807" width="47" height="48" rx="13" fill="#D73160"/>
<path d="M19.3249 35.3767H16.1241C15.5582 35.3767 15.0154 35.1443 14.6152 34.7308C14.2151 34.3173 13.9902 33.7565 13.9902 33.1717V25.4542C13.9902 24.8694 14.2151 24.3086 14.6152 23.8951C15.0154 23.4815 15.5582 23.2492 16.1241 23.2492H19.3249M26.7934 21.0442V16.6343C26.7934 15.7571 26.4562 14.9158 25.8559 14.2955C25.2556 13.6752 24.4415 13.3268 23.5926 13.3268L19.3249 23.2492V35.3767H31.3598C31.8745 35.3827 32.3738 35.1963 32.766 34.8519C33.1581 34.5075 33.4165 34.0282 33.4937 33.5024L34.9661 23.58C35.0125 23.264 34.9919 22.9413 34.9056 22.6343C34.8194 22.3273 34.6696 22.0434 34.4666 21.8022C34.2636 21.561 34.0123 21.3683 33.7301 21.2374C33.4479 21.1065 33.1415 21.0406 32.8322 21.0442H26.7934Z" stroke="white" stroke-width="2" stroke-linecap="round" stroke-linejoin="round"/>
</svg>
