<svg width="48" height="49" viewBox="0 0 48 49" fill="none" xmlns="http://www.w3.org/2000/svg">
<rect x="0.423096" y="0.476562" width="47" height="48" rx="13" fill="#FDB236"/>
<path d="M18.7577 35.501H15.557C14.991 35.501 14.4483 35.2687 14.0481 34.8552C13.6479 34.4417 13.4231 33.8809 13.4231 33.2961V25.5786C13.4231 24.9938 13.6479 24.433 14.0481 24.0194C14.4483 23.6059 14.991 23.3736 15.557 23.3736H18.7577M26.2263 21.1686V16.7587C26.2263 15.8815 25.889 15.0402 25.2888 14.4199C24.6885 13.7996 23.8744 13.4512 23.0255 13.4512L18.7577 23.3736V35.501H30.7927C31.3073 35.5071 31.8067 35.3207 32.1988 34.9763C32.5909 34.6319 32.8494 34.1526 32.9266 33.6268L34.3989 23.7044C34.4454 23.3883 34.4247 23.0657 34.3385 22.7587C34.2522 22.4517 34.1024 22.1678 33.8995 21.9266C33.6965 21.6854 33.4452 21.4927 33.163 21.3618C32.8808 21.2309 32.5744 21.165 32.2651 21.1686H26.2263Z" stroke="white" stroke-width="2" stroke-linecap="round" stroke-linejoin="round"/>
</svg>
